# xmcd
#
# Track frame offsets:
#	150
#	19170
#	34275
#	58645
#	80075
#	105125
#	126885
#	145440
#	166800
#	182250
#	214300
#
# Disc length: 2974 seconds
#
# Revision: 1
# Processed by: cddbd v1.5.2PL0 Copyright (c) Steve Scherf et al.
# Submitted via: audiograbber 1.83.01
#
DISCID=920b9c0b
DTITLE=Maria McKee - Paris 2003
DYEAR=2003
DGENRE=Alt Country
TTITLE0=I Can't Make It alone
TTITLE1=To The open Spaces
TTITLE2=Non Religious Building
TTITLE3=High Dive
TTITLE4=If Love Is A Red Dress
TTITLE5=From Our TV Teens To The Tomb
TTITLE6=Breathe
TTITLE7=Absolutely Barking Stars
TTITLE8=Candy's Room
TTITLE9=Something Similar
TTITLE10=Dixir Storms
EXTD=
EXTT0=
EXTT1=
EXTT2=
EXTT3=
EXTT4=
EXTT5=
EXTT6=
EXTT7=
EXTT8=
EXTT9=
EXTT10=
PLAYORDER=
